<?xml version="1.0" encoding="UTF-8"?>
<svg xmlns="http://www.w3.org/2000/svg" xmlns:xlink="http://www.w3.org/1999/xlink"
     viewBox="0 0 900 510" style="max-width:100%">

  <defs>
    <!-- ClipPaths for rounded card headers -->
    <clipPath id="c1"><rect x="80"  y="48" width="155" height="130" rx="10"/></clipPath>
    <clipPath id="c2"><rect x="275" y="48" width="155" height="130" rx="10"/></clipPath>
    <clipPath id="c3"><rect x="470" y="48" width="155" height="130" rx="10"/></clipPath>
    <clipPath id="c4"><rect x="665" y="48" width="155" height="130" rx="10"/></clipPath>
    <clipPath id="c5"><rect x="157" y="318" width="155" height="130" rx="10"/></clipPath>
    <clipPath id="c6"><rect x="372" y="318" width="155" height="130" rx="10"/></clipPath>
    <clipPath id="c7"><rect x="587" y="318" width="155" height="130" rx="10"/></clipPath>

    <!-- Arrow markers -->
    <marker id="m-gray"   viewBox="0 0 10 10" refX="9" refY="5" markerWidth="5" markerHeight="5" orient="auto"><path d="M0 2 L9 5 L0 8Z" fill="#484f58"/></marker>
    <marker id="m-blue"   viewBox="0 0 10 10" refX="9" refY="5" markerWidth="5" markerHeight="5" orient="auto"><path d="M0 2 L9 5 L0 8Z" fill="#29B5E8"/></marker>
    <marker id="m-orange" viewBox="0 0 10 10" refX="9" refY="5" markerWidth="5" markerHeight="5" orient="auto"><path d="M0 2 L9 5 L0 8Z" fill="#f97316"/></marker>

    <!-- Brand logo icons -->

    <!-- Kafka: hub-and-spoke molecular network (3 satellites + center hub) -->
    <symbol id="icon-kafka" viewBox="-15 -15 30 30">
      <!-- Hub center -->
      <circle cx="0" cy="0" r="4.5" fill="none" stroke="#d0d0d0" stroke-width="2.2"/>
      <!-- Top satellite -->
      <circle cx="0" cy="-10.5" r="3.8" fill="none" stroke="#d0d0d0" stroke-width="2.2"/>
      <line x1="0" y1="-4.5" x2="0" y2="-6.7" stroke="#d0d0d0" stroke-width="2.2"/>
      <!-- Bottom-right satellite -->
      <circle cx="9.09" cy="5.25" r="3.8" fill="none" stroke="#d0d0d0" stroke-width="2.2"/>
      <line x1="3.9" y1="2.25" x2="6.1" y2="3.52" stroke="#d0d0d0" stroke-width="2.2"/>
      <!-- Bottom-left satellite -->
      <circle cx="-9.09" cy="5.25" r="3.8" fill="none" stroke="#d0d0d0" stroke-width="2.2"/>
      <line x1="-3.9" y1="2.25" x2="-6.1" y2="3.52" stroke="#d0d0d0" stroke-width="2.2"/>
    </symbol>

    <!-- Spark: 8-pointed orange starburst (outer r=9, inner r=3) -->
    <symbol id="icon-spark" viewBox="-11 -11 22 22">
      <polygon points="
        0,-9  1.15,-2.77  6.36,-6.36  2.77,-1.15
        9,0   2.77,1.15   6.36,6.36   1.15,2.77
        0,9  -1.15,2.77  -6.36,6.36  -2.77,1.15
       -9,0  -2.77,-1.15 -6.36,-6.36 -1.15,-2.77"
        fill="#e25a1c"/>
      <!-- Bright inner circle highlight -->
      <circle cx="0" cy="0" r="2.2" fill="#f97316"/>
    </symbol>

    <!-- Snowflake: exact brand-style 6-arm snowflake with V-fork branches and center diamond -->
    <symbol id="icon-snowflake" viewBox="-11 -11 22 22">
      <g stroke="#29B5E8" stroke-width="2" stroke-linecap="round" fill="none">
        <!-- 3 main axes (= 6 arms) -->
        <line x1="0" y1="-9.5" x2="0" y2="9.5"/>
        <line x1="-8.23" y1="-4.75" x2="8.23" y2="4.75"/>
        <line x1="8.23" y1="-4.75" x2="-8.23" y2="4.75"/>
        <!-- V-forks on the vertical arm -->
        <line x1="0" y1="-5.7" x2="-2.4" y2="-7.6"/>
        <line x1="0" y1="-5.7" x2=" 2.4" y2="-7.6"/>
        <line x1="0" y1=" 5.7" x2="-2.4" y2=" 7.6"/>
        <line x1="0" y1=" 5.7" x2=" 2.4" y2=" 7.6"/>
        <!-- V-forks on the top-right arm -->
        <line x1=" 5.05" y1="-2.92" x2=" 6.8"  y2="-1.3"/>
        <line x1=" 5.05" y1="-2.92" x2=" 3.7"  y2="-4.9"/>
        <!-- V-forks on the bottom-left arm -->
        <line x1="-5.05" y1=" 2.92" x2="-6.8"  y2=" 1.3"/>
        <line x1="-5.05" y1=" 2.92" x2="-3.7"  y2=" 4.9"/>
        <!-- V-forks on the top-left arm -->
        <line x1="-5.05" y1="-2.92" x2="-6.8"  y2="-1.3"/>
        <line x1="-5.05" y1="-2.92" x2="-3.7"  y2="-4.9"/>
        <!-- V-forks on the bottom-right arm -->
        <line x1=" 5.05" y1=" 2.92" x2=" 6.8"  y2=" 1.3"/>
        <line x1=" 5.05" y1=" 2.92" x2=" 3.7"  y2=" 4.9"/>
        <!-- Center diamond -->
        <polygon points="0,-3 3,0 0,3 -3,0" fill="#29B5E8" stroke="none"/>
      </g>
    </symbol>

    <!-- Airflow: 4-blade propeller-style pinwheel, each blade rotated 20° for dynamic look -->
    <symbol id="icon-airflow" viewBox="-11 -11 22 22">
      <!-- sin(20°)=0.342, cos(20°)=0.940 → 9*sin=3.08, 9*cos=8.46 -->
      <path d="M 0,0 L  3.08,-8.46 A 9,9 0 0,1  8.46, 3.08 Z" fill="#E0213D"/>
      <path d="M 0,0 L  8.46, 3.08 A 9,9 0 0,1 -3.08, 8.46 Z" fill="#017CEE"/>
      <path d="M 0,0 L -3.08, 8.46 A 9,9 0 0,1 -8.46,-3.08 Z" fill="#00C44F"/>
      <path d="M 0,0 L -8.46,-3.08 A 9,9 0 0,1  3.08,-8.46 Z" fill="#00B0C8"/>
      <!-- White hub -->
      <circle cx="0" cy="0" r="2.6" fill="white"/>
    </symbol>

    <!-- Streamlit: origami crown — 3-face paper fold giving 3-D triangular peak -->
    <symbol id="icon-streamlit" viewBox="-10 -10 20 20">
      <!-- Left face (shadow / back) -->
      <path d="M -9,7 L 0,-9 L 0,0 Z" fill="#7B1515"/>
      <!-- Right face (bright / front) -->
      <path d="M  0,-9 L 0,0 L 9,7 Z" fill="#FF4B4B"/>
      <!-- Base face (underside) -->
      <path d="M  0,0 L 9,7 L -9,7 Z" fill="#CC2929"/>
    </symbol>

    <!-- Dot motion paths (row 1 horizontal) -->
    <path id="p12" d="M 236,113 L 273,113"/>
    <path id="p23" d="M 431,113 L 468,113"/>
    <path id="p34" d="M 626,113 L 663,113"/>
    <!-- Dot motion paths (cross-row curves) -->
    <path id="p_sd" d="M 742,179 C 742,248 234,248 234,317"/>
    <path id="p_kd" d="M 352,179 C 352,268 664,268 664,317"/>
    <!-- Dot motion paths (row 2 horizontal) -->
    <path id="p56" d="M 313,383 L 370,383"/>
    <path id="p67" d="M 528,383 L 585,383"/>
  </defs>

  <!-- ═══════════════════════════════ BACKGROUND ═══════════════════════════════ -->
  <rect width="900" height="510" fill="#0d1117"/>

  <!-- Subtle grid -->
  <g stroke="#161b22" stroke-width="1">
    <line x1="0"   y1="100" x2="900" y2="100"/>
    <line x1="0"   y1="200" x2="900" y2="200"/>
    <line x1="0"   y1="300" x2="900" y2="300"/>
    <line x1="0"   y1="400" x2="900" y2="400"/>
    <line x1="150" y1="0"   x2="150" y2="510"/>
    <line x1="300" y1="0"   x2="300" y2="510"/>
    <line x1="450" y1="0"   x2="450" y2="510"/>
    <line x1="600" y1="0"   x2="600" y2="510"/>
    <line x1="750" y1="0"   x2="750" y2="510"/>
  </g>

  <!-- ═══════════════════════════════ TITLE ═══════════════════════════════ -->
  <text x="450" y="30" text-anchor="middle" fill="#e6edf3"
        font-size="15" font-weight="700" font-family="'Segoe UI',system-ui,sans-serif"
        letter-spacing="0.4">
    StreamGuard — Real-Time Fraud Detection Pipeline
  </text>

  <!-- ROW LABELS -->
  <text x="30" y="96"  fill="#484f58" font-size="8" font-family="sans-serif" font-weight="700" transform="rotate(-90,30,113)">INGEST</text>
  <text x="30" y="366" fill="#484f58" font-size="8" font-family="sans-serif" font-weight="700" transform="rotate(-90,30,383)">ANALYTICS</text>

  <!-- ═══════════════════════════════ ROW 1 CARDS ═══════════════════════════════ -->

  <!-- ── CARD 1: PRODUCER ── -->
  <g clip-path="url(#c1)">
    <rect x="80"  y="48"  width="155" height="130" fill="#1a1a2e"/>
    <rect x="80"  y="48"  width="155" height="32"  fill="#f97316"/>
  </g>
  <rect x="80" y="48" width="155" height="130" rx="10" fill="none" stroke="#f97316" stroke-width="1.5">
    <animate attributeName="stroke-opacity" values="0.4;1;0.4" dur="3s" repeatCount="indefinite" begin="0s"/>
  </rect>
  <text x="157" y="72"  text-anchor="middle" fill="white"   font-size="12" font-weight="700" font-family="sans-serif">⚡ Producer</text>
  <text x="157" y="96"  text-anchor="middle" fill="#8b949e" font-size="9.5" font-family="sans-serif">Python · Faker</text>
  <text x="157" y="113" text-anchor="middle" fill="#e6edf3" font-size="10"  font-family="sans-serif" font-weight="600">10,000 txns / min</text>
  <text x="157" y="129" text-anchor="middle" fill="#8b949e" font-size="9.5" font-family="sans-serif">500 customers</text>
  <text x="157" y="146" text-anchor="middle" fill="#f97316" font-size="10"  font-family="sans-serif" font-weight="700">2% fraud injected</text>
  <text x="157" y="163" text-anchor="middle" fill="#484f58" font-size="8.5" font-family="sans-serif">key = customer_id</text>

  <!-- ── CARD 2: KAFKA ── -->
  <g clip-path="url(#c2)">
    <rect x="275" y="48"  width="155" height="130" fill="#1a1a2e"/>
    <rect x="275" y="48"  width="155" height="32"  fill="#2d2d2d"/>
  </g>
  <rect x="275" y="48" width="155" height="130" rx="10" fill="none" stroke="#888" stroke-width="1.5">
    <animate attributeName="stroke-opacity" values="0.4;1;0.4" dur="3s" repeatCount="indefinite" begin="0.5s"/>
  </rect>
  <use xlink:href="#icon-kafka" x="299" y="52" width="24" height="24"/>
  <text x="327" y="72"  text-anchor="start" fill="white"   font-size="12" font-weight="700" font-family="sans-serif">Apache Kafka</text>
  <text x="352" y="96"  text-anchor="middle" fill="#8b949e" font-size="9.5" font-family="sans-serif">raw-transactions</text>
  <text x="352" y="112" text-anchor="middle" fill="#e6edf3" font-size="10"  font-family="sans-serif" font-weight="600">6 partitions</text>
  <text x="352" y="128" text-anchor="middle" fill="#8b949e" font-size="9.5" font-family="sans-serif">fraud-alerts</text>
  <text x="352" y="144" text-anchor="middle" fill="#e6edf3" font-size="10"  font-family="sans-serif" font-weight="600">3 partitions</text>
  <text x="352" y="163" text-anchor="middle" fill="#484f58" font-size="8.5" font-family="sans-serif">24h log retention</text>

  <!-- ── CARD 3: SPARK ── -->
  <g clip-path="url(#c3)">
    <rect x="470" y="48"  width="155" height="130" fill="#1a1a2e"/>
    <rect x="470" y="48"  width="155" height="32"  fill="#e25a1c"/>
  </g>
  <rect x="470" y="48" width="155" height="130" rx="10" fill="none" stroke="#e25a1c" stroke-width="1.5">
    <animate attributeName="stroke-opacity" values="0.4;1;0.4" dur="3s" repeatCount="indefinite" begin="1s"/>
  </rect>
  <use xlink:href="#icon-spark" x="494" y="52" width="24" height="24"/>
  <text x="522" y="72"  text-anchor="start" fill="white"   font-size="12" font-weight="700" font-family="sans-serif">Apache Spark</text>
  <text x="547" y="96"  text-anchor="middle" fill="#8b949e" font-size="9.5" font-family="sans-serif">Structured Streaming</text>
  <text x="547" y="112" text-anchor="middle" fill="#e6edf3" font-size="10"  font-family="sans-serif" font-weight="600">micro-batch 5s</text>
  <text x="547" y="128" text-anchor="middle" fill="#8b949e" font-size="9.5" font-family="sans-serif">4 fraud rules</text>
  <text x="547" y="144" text-anchor="middle" fill="#e25a1c" font-size="10"  font-family="sans-serif" font-weight="700">score 0–100</text>
  <text x="547" y="163" text-anchor="middle" fill="#484f58" font-size="8.5" font-family="sans-serif">watermark 30s</text>

  <!-- ── CARD 4: SNOWFLAKE ── -->
  <g clip-path="url(#c4)">
    <rect x="665" y="48"  width="155" height="130" fill="#1a1a2e"/>
    <rect x="665" y="48"  width="155" height="32"  fill="#29B5E8"/>
  </g>
  <rect x="665" y="48" width="155" height="130" rx="10" fill="none" stroke="#29B5E8" stroke-width="1.5">
    <animate attributeName="stroke-opacity" values="0.4;1;0.4" dur="3s" repeatCount="indefinite" begin="1.5s"/>
  </rect>
  <use xlink:href="#icon-snowflake" x="701" y="52" width="24" height="24"/>
  <text x="729" y="72"  text-anchor="start" fill="white"   font-size="12" font-weight="700" font-family="sans-serif">Snowflake</text>
  <text x="742" y="96"  text-anchor="middle" fill="#8b949e" font-size="9.5" font-family="sans-serif">Hybrid Tables</text>
  <text x="742" y="112" text-anchor="middle" fill="#e6edf3" font-size="10"  font-family="sans-serif" font-weight="600">FRAUD_ALERTS</text>
  <text x="742" y="128" text-anchor="middle" fill="#29B5E8" font-size="10"  font-family="sans-serif" font-weight="700">&lt; 5ms lookup ⚡</text>
  <text x="742" y="144" text-anchor="middle" fill="#8b949e" font-size="9.5" font-family="sans-serif">row-store index</text>
  <text x="742" y="163" text-anchor="middle" fill="#484f58" font-size="8.5" font-family="sans-serif">TRANSACTIONS_RAW</text>

  <!-- ═══════════════════════════════ ROW 1 ARROWS ═══════════════════════════════ -->

  <!-- 1→2 -->
  <line x1="236" y1="113" x2="273" y2="113" stroke="#484f58" stroke-width="1.5" marker-end="url(#m-gray)"/>
  <text x="254" y="107" text-anchor="middle" fill="#484f58" font-size="7" font-family="sans-serif">JSON</text>
  <circle r="3.5" fill="#f97316"><animateMotion dur="1.4s" repeatCount="indefinite" begin="0s"   ><mpath xlink:href="#p12"/></animateMotion></circle>
  <circle r="3.5" fill="#f97316"><animateMotion dur="1.4s" repeatCount="indefinite" begin="0.46s"><mpath xlink:href="#p12"/></animateMotion></circle>
  <circle r="3.5" fill="#f97316"><animateMotion dur="1.4s" repeatCount="indefinite" begin="0.92s"><mpath xlink:href="#p12"/></animateMotion></circle>

  <!-- 2→3 -->
  <line x1="431" y1="113" x2="468" y2="113" stroke="#484f58" stroke-width="1.5" marker-end="url(#m-gray)"/>
  <text x="449" y="107" text-anchor="middle" fill="#484f58" font-size="7" font-family="sans-serif">readStream</text>
  <circle r="3.5" fill="#aaa"><animateMotion dur="1.4s" repeatCount="indefinite" begin="0.2s" ><mpath xlink:href="#p23"/></animateMotion></circle>
  <circle r="3.5" fill="#aaa"><animateMotion dur="1.4s" repeatCount="indefinite" begin="0.66s"><mpath xlink:href="#p23"/></animateMotion></circle>
  <circle r="3.5" fill="#aaa"><animateMotion dur="1.4s" repeatCount="indefinite" begin="1.12s"><mpath xlink:href="#p23"/></animateMotion></circle>

  <!-- 3→4 -->
  <line x1="626" y1="113" x2="663" y2="113" stroke="#484f58" stroke-width="1.5" marker-end="url(#m-gray)"/>
  <text x="644" y="107" text-anchor="middle" fill="#484f58" font-size="7" font-family="sans-serif">fraud alerts</text>
  <circle r="3.5" fill="#e25a1c"><animateMotion dur="1.4s" repeatCount="indefinite" begin="0.4s" ><mpath xlink:href="#p34"/></animateMotion></circle>
  <circle r="3.5" fill="#e25a1c"><animateMotion dur="1.4s" repeatCount="indefinite" begin="0.86s"><mpath xlink:href="#p34"/></animateMotion></circle>
  <circle r="3.5" fill="#e25a1c"><animateMotion dur="1.4s" repeatCount="indefinite" begin="1.32s"><mpath xlink:href="#p34"/></animateMotion></circle>

  <!-- ═══════════════════════════════ CROSS-ROW CONNECTIONS ═══════════════════════════════ -->

  <!-- Snowflake → dbt (CDC stream) -->
  <path d="M 742,179 C 742,248 234,248 234,317" fill="none" stroke="#29B5E8" stroke-width="1.5" stroke-dasharray="5,3" marker-end="url(#m-blue)"/>
  <text x="560" y="243" text-anchor="middle" fill="#29B5E8" font-size="8" font-family="sans-serif">CDC stream · dbt models</text>
  <circle r="4" fill="#29B5E8" opacity="0.9"><animateMotion dur="2.2s" repeatCount="indefinite" begin="0s"   ><mpath xlink:href="#p_sd"/></animateMotion></circle>
  <circle r="4" fill="#29B5E8" opacity="0.9"><animateMotion dur="2.2s" repeatCount="indefinite" begin="0.73s"><mpath xlink:href="#p_sd"/></animateMotion></circle>
  <circle r="4" fill="#29B5E8" opacity="0.9"><animateMotion dur="2.2s" repeatCount="indefinite" begin="1.46s"><mpath xlink:href="#p_sd"/></animateMotion></circle>

  <!-- Kafka → Dashboard (live Kafka feed) -->
  <path d="M 352,179 C 352,268 664,268 664,317" fill="none" stroke="#f97316" stroke-width="1.5" stroke-dasharray="5,3" marker-end="url(#m-orange)"/>
  <text x="500" y="264" text-anchor="middle" fill="#f97316" font-size="8" font-family="sans-serif">live Kafka feed</text>
  <circle r="3.5" fill="#f97316" opacity="0.9"><animateMotion dur="2.2s" repeatCount="indefinite" begin="0.3s" ><mpath xlink:href="#p_kd"/></animateMotion></circle>
  <circle r="3.5" fill="#f97316" opacity="0.9"><animateMotion dur="2.2s" repeatCount="indefinite" begin="1.4s" ><mpath xlink:href="#p_kd"/></animateMotion></circle>

  <!-- ═══════════════════════════════ ROW 2 CARDS ═══════════════════════════════ -->

  <!-- ── CARD 5: dbt ── -->
  <g clip-path="url(#c5)">
    <rect x="157" y="318" width="155" height="130" fill="#1a1a2e"/>
    <rect x="157" y="318" width="155" height="32"  fill="#FF694B"/>
  </g>
  <rect x="157" y="318" width="155" height="130" rx="10" fill="none" stroke="#FF694B" stroke-width="1.5">
    <animate attributeName="stroke-opacity" values="0.4;1;0.4" dur="3s" repeatCount="indefinite" begin="2s"/>
  </rect>
  <text x="234" y="342" text-anchor="middle" fill="white"   font-size="12" font-weight="700" font-family="sans-serif">🔧 dbt</text>
  <text x="234" y="366" text-anchor="middle" fill="#8b949e" font-size="9.5" font-family="sans-serif">Medallion Architecture</text>
  <text x="234" y="382" text-anchor="middle" fill="#e6edf3" font-size="10"  font-family="sans-serif">🥉 Bronze · 🥈 Silver</text>
  <text x="234" y="398" text-anchor="middle" fill="#FF694B" font-size="10"  font-family="sans-serif" font-weight="700">🥇 Gold layer</text>
  <text x="234" y="414" text-anchor="middle" fill="#8b949e" font-size="9.5" font-family="sans-serif">6 models · incremental</text>
  <text x="234" y="432" text-anchor="middle" fill="#484f58" font-size="8.5" font-family="sans-serif">dbt tests built-in</text>

  <!-- ── CARD 6: AIRFLOW ── -->
  <g clip-path="url(#c6)">
    <rect x="372" y="318" width="155" height="130" fill="#1a1a2e"/>
    <rect x="372" y="318" width="155" height="32"  fill="#017CEE"/>
  </g>
  <rect x="372" y="318" width="155" height="130" rx="10" fill="none" stroke="#017CEE" stroke-width="1.5">
    <animate attributeName="stroke-opacity" values="0.4;1;0.4" dur="3s" repeatCount="indefinite" begin="2.5s"/>
  </rect>
  <use xlink:href="#icon-airflow" x="413" y="322" width="24" height="24"/>
  <text x="441" y="342" text-anchor="start" fill="white"   font-size="12" font-weight="700" font-family="sans-serif">Airflow</text>
  <text x="449" y="366" text-anchor="middle" fill="#8b949e" font-size="9.5" font-family="sans-serif">Orchestration DAG</text>
  <text x="449" y="382" text-anchor="middle" fill="#e6edf3" font-size="10"  font-family="sans-serif" font-weight="600">streamguard_daily</text>
  <text x="449" y="398" text-anchor="middle" fill="#017CEE" font-size="10"  font-family="sans-serif" font-weight="700">2 AM nightly</text>
  <text x="449" y="414" text-anchor="middle" fill="#8b949e" font-size="9.5" font-family="sans-serif">retry × 3 · Slack alerts</text>
  <text x="449" y="432" text-anchor="middle" fill="#484f58" font-size="8.5" font-family="sans-serif">SLA monitoring</text>

  <!-- ── CARD 7: STREAMLIT ── -->
  <g clip-path="url(#c7)">
    <rect x="587" y="318" width="155" height="130" fill="#1a1a2e"/>
    <rect x="587" y="318" width="155" height="32"  fill="#FF4B4B"/>
  </g>
  <rect x="587" y="318" width="155" height="130" rx="10" fill="none" stroke="#FF4B4B" stroke-width="1.5">
    <animate attributeName="stroke-opacity" values="0.4;1;0.4" dur="3s" repeatCount="indefinite" begin="3s"/>
  </rect>
  <use xlink:href="#icon-streamlit" x="621" y="322" width="24" height="24"/>
  <text x="649" y="342" text-anchor="start" fill="white"   font-size="12" font-weight="700" font-family="sans-serif">Streamlit</text>
  <text x="664" y="366" text-anchor="middle" fill="#8b949e" font-size="9.5" font-family="sans-serif">Live Analyst Dashboard</text>
  <text x="664" y="382" text-anchor="middle" fill="#e6edf3" font-size="10"  font-family="sans-serif">Fraud Feed · KPI Metrics</text>
  <text x="664" y="398" text-anchor="middle" fill="#FF4B4B" font-size="10"  font-family="sans-serif" font-weight="700">localhost:8501</text>
  <text x="664" y="414" text-anchor="middle" fill="#8b949e" font-size="9.5" font-family="sans-serif">Kafka + Snowflake</text>
  <text x="664" y="432" text-anchor="middle" fill="#484f58" font-size="8.5" font-family="sans-serif">auto-refresh 3s</text>

  <!-- ═══════════════════════════════ ROW 2 ARROWS ═══════════════════════════════ -->

  <!-- 5→6 (dbt → Airflow) -->
  <line x1="313" y1="383" x2="370" y2="383" stroke="#484f58" stroke-width="1.5" marker-end="url(#m-gray)"/>
  <text x="341" y="377" text-anchor="middle" fill="#484f58" font-size="7" font-family="sans-serif">orchestrates</text>
  <circle r="3.5" fill="#FF694B"><animateMotion dur="1.4s" repeatCount="indefinite" begin="0.6s" ><mpath xlink:href="#p56"/></animateMotion></circle>
  <circle r="3.5" fill="#FF694B"><animateMotion dur="1.4s" repeatCount="indefinite" begin="1.1s"><mpath xlink:href="#p56"/></animateMotion></circle>

  <!-- 6→7 (Airflow → Dashboard via Gold views) -->
  <line x1="528" y1="383" x2="585" y2="383" stroke="#484f58" stroke-width="1.5" marker-end="url(#m-gray)"/>
  <text x="556" y="377" text-anchor="middle" fill="#484f58" font-size="7" font-family="sans-serif">Gold views</text>
  <circle r="3.5" fill="#017CEE"><animateMotion dur="1.4s" repeatCount="indefinite" begin="0.8s" ><mpath xlink:href="#p67"/></animateMotion></circle>
  <circle r="3.5" fill="#017CEE"><animateMotion dur="1.4s" repeatCount="indefinite" begin="1.3s"><mpath xlink:href="#p67"/></animateMotion></circle>

  <!-- ═══════════════════════════════ STATS BAR ═══════════════════════════════ -->
  <rect x="0" y="462" width="900" height="48" fill="#161b22"/>
  <line x1="0" y1="462" x2="900" y2="462" stroke="#30363d" stroke-width="1"/>

  <text x="90"  y="477" text-anchor="middle" fill="#8b949e" font-size="7.5" font-family="sans-serif" font-weight="600">THROUGHPUT</text>
  <text x="90"  y="495" text-anchor="middle" fill="#f97316" font-size="12"  font-family="sans-serif" font-weight="700">10K txns/min</text>

  <line x1="180" y1="466" x2="180" y2="506" stroke="#30363d" stroke-width="1"/>

  <text x="270" y="477" text-anchor="middle" fill="#8b949e" font-size="7.5" font-family="sans-serif" font-weight="600">FRAUD DETECTION</text>
  <text x="270" y="495" text-anchor="middle" fill="#e25a1c" font-size="12"  font-family="sans-serif" font-weight="700">&lt; 1 second</text>

  <line x1="360" y1="466" x2="360" y2="506" stroke="#30363d" stroke-width="1"/>

  <text x="450" y="477" text-anchor="middle" fill="#8b949e" font-size="7.5" font-family="sans-serif" font-weight="600">DETECTION RATE</text>
  <text x="450" y="495" text-anchor="middle" fill="#3fb950" font-size="12"  font-family="sans-serif" font-weight="700">~95% accuracy</text>

  <line x1="540" y1="466" x2="540" y2="506" stroke="#30363d" stroke-width="1"/>

  <text x="630" y="477" text-anchor="middle" fill="#8b949e" font-size="7.5" font-family="sans-serif" font-weight="600">SNOWFLAKE LOOKUP</text>
  <text x="630" y="495" text-anchor="middle" fill="#29B5E8" font-size="12"  font-family="sans-serif" font-weight="700">&lt; 5ms hybrid</text>

  <line x1="720" y1="466" x2="720" y2="506" stroke="#30363d" stroke-width="1"/>

  <text x="810" y="477" text-anchor="middle" fill="#8b949e" font-size="7.5" font-family="sans-serif" font-weight="600">TEST SUITE</text>
  <text x="810" y="495" text-anchor="middle" fill="#3fb950" font-size="12"  font-family="sans-serif" font-weight="700">17 / 17 passed ✓</text>

</svg>
